<svg xmlns="http://www.w3.org/2000/svg" viewBox="0 0 605.06 405.29"><defs><style>.cls-1{fill:#f5f5f5;}.cls-2{fill:#e0e0e0;}.cls-3{fill:#ec4152;}.cls-4{fill:#e8505b;}.cls-5{fill:#263238;}.cls-6{fill:#455a64;}.cls-7{fill:#b78876;}.cls-8{fill:#a36957;}.cls-9{opacity:0.3;}.cls-10{fill:#fafafa;}.cls-11{opacity:0.5;}.cls-12{fill:#fff;}.cls-13{fill:none;stroke:#263238;stroke-miterlimit:10;}</style></defs><title>Ativo 3</title><g id="Camada_2" data-name="Camada 2"><g id="Speech_Bubble" data-name="Speech Bubble"><rect class="cls-1" x="46.19" y="89.3" width="142.17" height="209.34" transform="matrix(0.83, -0.56, 0.56, 0.83, -88.04, 97.94)"/><polygon class="cls-2" points="173.5 233.2 172.16 241.5 113.42 233.03 114.76 224.74 173.5 233.2"/><polygon class="cls-2" points="143.92 203.59 152.35 204.8 143 262.64 134.57 261.43 143.92 203.59"/><path class="cls-2" d="M89.81,130.08c.09.12-11.76,8.19-26.45,18s-26.67,17.69-26.75,17.56,11.76-8.19,26.45-18S89.73,130,89.81,130.08Z"/><path class="cls-2" d="M133.27,119.17c.08.12-19.61,13.44-44,29.74S45.09,178.33,45,178.21s19.61-13.45,44-29.75S133.19,119,133.27,119.17Z"/><path class="cls-2" d="M142,132.19c.09.13-19.61,13.45-44,29.75s-44.2,29.42-44.29,29.29,19.61-13.44,44-29.75S141.9,132.07,142,132.19Z"/><path class="cls-2" d="M150.69,145.22c.09.12-19.61,13.44-44,29.74s-44.2,29.42-44.29,29.29,19.61-13.44,44-29.74S150.61,145.09,150.69,145.22Z"/><path class="cls-2" d="M159.4,158.24c.09.13-19.61,13.45-44,29.75s-44.2,29.41-44.29,29.29,19.61-13.44,44-29.75S159.32,158.11,159.4,158.24Z"/><rect class="cls-1" x="446.87" y="202.41" width="119.4" height="175.81" transform="translate(-75.9 330.63) rotate(-33.78)"/><polygon class="cls-2" points="553.79 323.26 552.66 330.24 503.32 323.13 504.45 316.16 553.79 323.26"/><polygon class="cls-2" points="528.94 298.4 536.02 299.42 528.17 347.99 521.09 346.97 528.94 298.4"/><path class="cls-2" d="M483.5,236.66c.08.13-9.85,6.92-22.19,15.17s-22.41,14.84-22.49,14.72,9.85-6.92,22.19-15.17S483.41,236.54,483.5,236.66Z"/><path class="cls-2" d="M520,227.5c.08.13-16.45,11.33-36.92,25S446,277.21,445.87,277.08s16.44-11.32,36.91-25S519.91,227.37,520,227.5Z"/><path class="cls-2" d="M527.31,238.44c.09.12-16.44,11.33-36.91,25S453.27,288.15,453.18,288s16.44-11.33,36.92-25S527.23,238.31,527.31,238.44Z"/><path class="cls-2" d="M534.63,249.38c.08.12-16.45,11.32-36.91,25S460.58,299.08,460.5,299s16.44-11.33,36.91-25S534.54,249.25,534.63,249.38Z"/><path class="cls-2" d="M541.94,260.31c.09.13-16.44,11.33-36.91,25S467.9,310,467.81,309.9s16.44-11.33,36.92-25S541.86,260.19,541.94,260.31Z"/><rect class="cls-1" x="198.13" y="34.18" width="122.8" height="180.82" transform="translate(89.43 -107.67) rotate(28.14)"/><polygon class="cls-2" points="252.5 183.39 245.63 185.74 228.19 137.54 235.06 135.18 252.5 183.39"/><polygon class="cls-2" points="263.03 148.81 265.53 155.72 217.66 172.12 215.15 165.2 263.03 148.81"/><path class="cls-2" d="M297.05,77.68c-.09.16-11.07-5.55-24.53-12.75S248.21,51.77,248.3,51.61s11.06,5.55,24.53,12.75S297.13,77.52,297.05,77.68Z"/><path class="cls-2" d="M323,106.36c-.08.16-18.26-9.4-40.59-21.34S242.06,63.26,242.15,63.1s18.26,9.4,40.6,21.35S323.12,106.2,323,106.36Z"/><path class="cls-2" d="M316.65,118.3c-.09.15-18.26-9.4-40.59-21.35S235.68,75.2,235.76,75s18.26,9.39,40.6,21.34S316.73,118.14,316.65,118.3Z"/><path class="cls-2" d="M310.27,130.23c-.09.16-18.27-9.4-40.6-21.34S229.3,87.13,229.38,87s18.26,9.4,40.6,21.35S310.35,130.07,310.27,130.23Z"/><path class="cls-2" d="M303.88,142.16c-.08.16-18.26-9.39-40.59-21.34S222.91,99.06,223,98.91s18.26,9.39,40.6,21.34S304,142,303.88,142.16Z"/><path class="cls-3" d="M11.18,335.93a13.24,13.24,0,0,1,9.25,4.73,23.42,23.42,0,0,1,4.71,9.49c1.78,6.66.68,14.52-1.22,21.15C16.72,368.72,12.27,361,10.26,357c-3.18-6.39-5-19.86.92-21.06"/><path class="cls-4" d="M34.3,379.37A11.31,11.31,0,0,1,33.77,368a15,15,0,0,1,9.06-7.28c1.76-.54,3.8-.76,5.33.26A4.82,4.82,0,0,1,50,365.53,9.82,9.82,0,0,1,48,370.19c-3.51,4.74-7.77,8.69-13.65,9.18"/><path class="cls-5" d="M35.09,401.63a9.39,9.39,0,0,1-.32-1.39c-.19-1-.44-2.26-.74-3.79-.57-3.2-1.47-7.73-.79-12.75A24.28,24.28,0,0,1,38,371.89a17,17,0,0,1,2.73-2.77c.36-.29.67-.48.86-.62a1.21,1.21,0,0,1,.32-.18,26.38,26.38,0,0,0-3.63,3.78,25,25,0,0,0-4.51,11.67c-.68,4.91.16,9.41.64,12.62.25,1.61.46,2.91.58,3.82A6.78,6.78,0,0,1,35.09,401.63Z"/><path class="cls-5" d="M13.5,346.06a2.5,2.5,0,0,1,.29.55l.74,1.6c.64,1.4,1.54,3.43,2.62,6,2.18,5,5.08,12.05,8.11,19.86s5.61,15,7.41,20.14c.9,2.6,1.61,4.7,2.08,6.17.22.69.39,1.25.53,1.68a2.33,2.33,0,0,1,.15.6,3.11,3.11,0,0,1-.24-.56l-.63-1.66c-.54-1.5-1.3-3.57-2.22-6.11-1.89-5.15-4.52-12.27-7.55-20.08s-5.87-14.83-8-19.91c-1-2.49-1.87-4.53-2.47-6l-.66-1.64A3,3,0,0,1,13.5,346.06Z"/><path class="cls-3" d="M26.53,386.9A26.5,26.5,0,0,0,6,374.13c-2.13-.16-4.69.2-5.64,2.12S.65,380.43,2.1,382a22.63,22.63,0,0,0,24.51,5.48"/><path class="cls-5" d="M9.22,379.83a7.85,7.85,0,0,1,1.33.05,13.62,13.62,0,0,1,1.56.18c.6.12,1.3.18,2,.39a21.43,21.43,0,0,1,2.43.67,25.58,25.58,0,0,1,2.71,1A29.55,29.55,0,0,1,25,385.53a29.34,29.34,0,0,1,4.71,4.67,23,23,0,0,1,1.66,2.38,20.14,20.14,0,0,1,1.24,2.19,20.67,20.67,0,0,1,.85,1.9,13.11,13.11,0,0,1,.53,1.48,6.18,6.18,0,0,1,.34,1.29c-.1,0-.61-1.81-2-4.5A21.15,21.15,0,0,0,31,392.8a23,23,0,0,0-1.67-2.31,29.73,29.73,0,0,0-4.66-4.56,30.24,30.24,0,0,0-5.59-3.36c-.92-.4-1.79-.78-2.65-1.06a24.8,24.8,0,0,0-2.38-.72C11.11,380,9.21,379.94,9.22,379.83Z"/><path class="cls-5" d="M487.29,49.75c-3.1.72-4.61,4.28-4.9,7.44s.11,6.51-1.22,9.39c-1.49,3.25-5.07,5.65-5.19,9.22-.07,2.18,1.23,4.23,1.16,6.41-.1,3.58-3.75,6.29-3.94,9.86-.14,2.58,1.58,5.05,1.16,7.6-.32,2-1.86,3.54-2.51,5.44-1.3,3.78,1.3,7.94,4.69,10.07A15.35,15.35,0,0,0,498.91,108c1.88-4.55,1.47-9.67,1.06-14.58q-1.91-22.9-2.83-45.9"/><path class="cls-6" d="M478.3,103.66a3.75,3.75,0,0,0,1.41-1.68,5.83,5.83,0,0,0,.36-2.57,14,14,0,0,0-.76-3.41,9.53,9.53,0,0,1-.55-4.32c.26-1.64,1.43-3,2.51-4.31a10,10,0,0,0,1.42-2.16,3.51,3.51,0,0,0,.16-2.53c-.54-1.72-2.23-3-3-5a5.29,5.29,0,0,1-.17-3.07,12.26,12.26,0,0,1,1-2.76,23.85,23.85,0,0,0,2.09-4.95c.74-3.35.39-6.53.89-9.15a10.21,10.21,0,0,1,2.67-5.62,6,6,0,0,1,1.39-1,3.41,3.41,0,0,1,.56-.21,8.4,8.4,0,0,0-1.8,1.36,10.19,10.19,0,0,0-2.43,5.52,36,36,0,0,0-.3,4.26,25.73,25.73,0,0,1-.49,4.94,23.75,23.75,0,0,1-2.1,5.07c-.79,1.66-1.52,3.6-.82,5.41s2.37,3.07,3,5a4,4,0,0,1-.19,2.9,10.2,10.2,0,0,1-1.51,2.27c-1.1,1.33-2.2,2.6-2.46,4.07a9.53,9.53,0,0,0,.48,4.13,14.26,14.26,0,0,1,.7,3.5,6,6,0,0,1-.47,2.67,3.13,3.13,0,0,1-1.08,1.33A1.62,1.62,0,0,1,478.3,103.66Z"/><path class="cls-7" d="M470,128.62,460.5,156l-39.65,2.13-6.61,14.71,41.39,4.18a15.64,15.64,0,0,0,20.7-9.17l11-30.84Z"/><path class="cls-7" d="M552,387s-29-92.28-29.67-95.27c-.56-2.71,10.54-69.11,11.94-86.3L495,206.89v.29l-16.69.92,14.95,188.73h18.07l-1.8-62.62c11.14,29.91,27.11,60.39,27.11,60.39Z"/><path class="cls-8" d="M510.29,356.65c0-.57-.22-21-.22-21-.22,1.22-6.92-17.72-6.76-18.87C503.39,316.21,510.29,356.65,510.29,356.65Z"/><path class="cls-8" d="M502.54,307.84a4.29,4.29,0,0,0-.11,1.15,30,30,0,0,0,0,3.12c0,.67.1,1.39.18,2.16s.21,1.6.39,2.46a41.54,41.54,0,0,0,1.47,5.5c1.31,3.81,2.76,7.15,3.79,9.58.49,1.1.9,2.05,1.26,2.85a4.63,4.63,0,0,0,.53,1,3.84,3.84,0,0,0-.32-1.11c-.24-.69-.61-1.69-1.08-2.92-.92-2.47-2.31-5.83-3.61-9.61a47.15,47.15,0,0,1-1.5-5.42c-.19-.84-.32-1.65-.43-2.41s-.2-1.47-.25-2.13c-.13-1.3-.19-2.36-.22-3.1A3.56,3.56,0,0,0,502.54,307.84Z"/><path class="cls-6" d="M492.94,397.76v-1.7l18.51-.81.05,7-1.14.08c-5.08.3-25.85,1.15-29.25.13C477.31,401.33,492.94,397.76,492.94,397.76Z"/><path class="cls-5" d="M511.75,401.83l-.32,0-.91.06-3.34.16c-2.83.11-6.74.21-11.05.23s-8.22-.05-11.05-.14l-3.35-.12-.91-.05a1.61,1.61,0,0,1-.31,0h1.22l3.35.06c2.83,0,6.73.09,11.05.07s8.21-.1,11-.17l3.35-.09h1.23Z"/><path class="cls-5" d="M487,402.42a8.11,8.11,0,0,0-.63-1.59,8.35,8.35,0,0,0-1.15-1.28,2.56,2.56,0,0,1,1.34,1.16A2.52,2.52,0,0,1,487,402.42Z"/><path class="cls-5" d="M492.37,399.65c-.05,0-.31-.28-.58-.71s-.45-.79-.4-.82.31.28.58.7S492.42,399.62,492.37,399.65Z"/><path class="cls-5" d="M493.86,398.86c-.05,0-.34-.15-.65-.44s-.55-.55-.51-.59.34.14.65.43S493.9,398.81,493.86,398.86Z"/><path class="cls-5" d="M494.79,397.11c0,.07-.43.12-1,.13a2.12,2.12,0,0,1-1-.1,2.12,2.12,0,0,1,1-.12A2.2,2.2,0,0,1,494.79,397.11Z"/><path class="cls-5" d="M495.11,395.89a2.76,2.76,0,0,1-2.18.17,119.9,119.9,0,0,0,2.18-.17Z"/><path class="cls-5" d="M491.74,398.05a3.59,3.59,0,0,1-1.19,0,7.38,7.38,0,0,1-1.26-.27,3.07,3.07,0,0,1-.72-.3.6.6,0,0,1-.29-.36.46.46,0,0,1,.18-.48,2.19,2.19,0,0,1,3.07,1.42.66.66,0,0,1,0,.32,3.18,3.18,0,0,0-.54-1,2.11,2.11,0,0,0-1-.65,1.78,1.78,0,0,0-1.41.1c-.19.14-.12.36.09.48a3.27,3.27,0,0,0,.67.28,8.23,8.23,0,0,0,1.22.32C491.29,398,491.74,398,491.74,398.05Z"/><path class="cls-5" d="M491.43,398.1a1.19,1.19,0,0,1-.14-.82,1.9,1.9,0,0,1,.32-.86,1.21,1.21,0,0,1,1-.61.48.48,0,0,1,.37.55,1.3,1.3,0,0,1-.2.53,3.57,3.57,0,0,1-.55.71,1.76,1.76,0,0,1-.68.49s.24-.22.56-.59a3.91,3.91,0,0,0,.49-.72c.17-.25.27-.7,0-.75s-.6.27-.78.51a1.89,1.89,0,0,0-.33.77A4.37,4.37,0,0,0,491.43,398.1Z"/><path class="cls-5" d="M511.35,396.79s-.53-.05-1.36.06a5.86,5.86,0,0,0-3,1.23,5.93,5.93,0,0,0-1.84,2.63c-.28.79-.31,1.32-.35,1.31a1.17,1.17,0,0,1,0-.37,4.51,4.51,0,0,1,.2-1,5.55,5.55,0,0,1,4.94-4,5.24,5.24,0,0,1,1,0A1.07,1.07,0,0,1,511.35,396.79Z"/><path class="cls-5" d="M502.49,400.36a10.38,10.38,0,0,1-2.69.26,10.25,10.25,0,0,1-2.69-.23c0-.06,1.21,0,2.69,0S502.48,400.3,502.49,400.36Z"/><path class="cls-5" d="M506.1,400.32c0,.05-.1.26-.22.53s-.19.52-.25.52-.1-.29,0-.61S506.06,400.28,506.1,400.32Z"/><path class="cls-5" d="M507.45,398.63c.05,0-.07.23-.26.42s-.38.32-.43.28.08-.24.27-.43S507.41,398.58,507.45,398.63Z"/><path class="cls-5" d="M509.39,397.84c0,.07-.25.07-.52.16s-.47.24-.52.2.11-.29.44-.41S509.41,397.79,509.39,397.84Z"/><path class="cls-5" d="M510.78,397.48s-.09.15-.24.21-.29.06-.31,0,.08-.15.23-.21S510.76,397.42,510.78,397.48Z"/><path class="cls-6" d="M536.29,396.12l-.7-1.54,16.55-8.32,2.92,6.37-1,.54c-4.52,2.35-23.11,11.64-26.63,12.1C523.5,405.78,536.29,396.12,536.29,396.12Z"/><path class="cls-5" d="M555.12,392.14l-.28.16-.8.42-3,1.52c-2.53,1.25-6,2.95-10,4.73s-7.52,3.33-10.14,4.4l-3.1,1.26L527,405l-.31.1a1.38,1.38,0,0,1,.29-.14l.83-.37,3.08-1.32c2.6-1.12,6.18-2.68,10.11-4.46s7.45-3.45,10-4.68l3-1.45.82-.38A1,1,0,0,1,555.12,392.14Z"/><path class="cls-5" d="M532.74,402.84a7.63,7.63,0,0,0-1.23-1.2,6.8,6.8,0,0,0-1.57-.69,2.42,2.42,0,0,1,1.69.51A2.51,2.51,0,0,1,532.74,402.84Z"/><path class="cls-5" d="M536.55,398.08c0,.06-.4-.12-.82-.4s-.74-.54-.7-.59.4.13.82.4S536.58,398,536.55,398.08Z"/><path class="cls-5" d="M537.58,396.75c0,.06-.36,0-.77-.13s-.72-.28-.7-.33.36,0,.77.12S537.6,396.69,537.58,396.75Z"/><path class="cls-5" d="M537.72,394.78c0,.06-.34.28-.82.51s-.9.36-.92.3.34-.28.82-.5S537.69,394.72,537.72,394.78Z"/><path class="cls-5" d="M537.51,393.53s-.3.43-.85.73a1.86,1.86,0,0,1-1.07.32,6.69,6.69,0,0,1,1-.52A6.46,6.46,0,0,1,537.51,393.53Z"/><path class="cls-5" d="M535.32,396.88a3.49,3.49,0,0,1-1.09.48,7.05,7.05,0,0,1-1.26.27,3.92,3.92,0,0,1-.78,0,.62.62,0,0,1-.41-.22.46.46,0,0,1,0-.5,2.18,2.18,0,0,1,2.71-.53,2,2,0,0,1,.68.56.73.73,0,0,1,.16.28,3.42,3.42,0,0,0-.91-.7,2.16,2.16,0,0,0-1.19-.18,1.84,1.84,0,0,0-1.25.67c-.11.2,0,.37.29.4a3.47,3.47,0,0,0,.72,0,7.58,7.58,0,0,0,1.24-.21C534.89,397,535.3,396.85,535.32,396.88Z"/><path class="cls-5" d="M535.06,397.06s-.29-.18-.46-.69a2,2,0,0,1-.07-.92,1.21,1.21,0,0,1,.65-1c.27-.08.88.45.93.65s-.32.1-.34.26a3.53,3.53,0,0,1-.21.89,1.66,1.66,0,0,1-.42.71s.13-.29.27-.77a4.3,4.3,0,0,0,.16-.85c0-.29,0-.75-.33-.67s-.44.49-.5.78a1.82,1.82,0,0,0,0,.84A4.45,4.45,0,0,0,535.06,397.06Z"/><path class="cls-5" d="M552.7,387.7s-.51.17-1.22.61a5.83,5.83,0,0,0-2.2,2.34,6,6,0,0,0-.61,3.15c.07.83.27,1.33.23,1.34s-.08-.11-.16-.34a4.52,4.52,0,0,1-.22-1,5.59,5.59,0,0,1,2.88-5.65,4.68,4.68,0,0,1,.93-.39A1.2,1.2,0,0,1,552.7,387.7Z"/><path class="cls-5" d="M546.07,394.59a10.06,10.06,0,0,1-2.34,1.33,10.71,10.71,0,0,1-2.55.9c0-.06,1.1-.48,2.45-1.1S546,394.53,546.07,394.59Z"/><path class="cls-5" d="M549.35,393.08c.06,0,0,.27,0,.57s0,.55,0,.58-.21-.23-.21-.58S549.29,393.05,549.35,393.08Z"/><path class="cls-5" d="M549.89,391c.06,0,0,.25-.07.5s-.21.45-.27.42,0-.24.06-.49S549.83,391,549.89,391Z"/><path class="cls-5" d="M551.34,389.47c0,.06-.21.16-.42.35s-.32.41-.38.4,0-.32.23-.56S551.33,389.41,551.34,389.47Z"/><path class="cls-5" d="M552.45,388.56s0,.17-.13.29-.24.18-.28.13,0-.17.12-.29S552.41,388.52,552.45,388.56Z"/><path class="cls-3" d="M531.74,174.19l-3.09-37.59,15.83.28s.74-5.54-1.6-17.7c-1.43-7.46-6.39-12-12-14.75v-.1l-.48-.12a45.28,45.28,0,0,0-14.5-3.79l-19.43.23s-14.84-1.85-23.05,8.73c-3.17,4.07-13,32-13,32l23.32,11.23-2.22-15.47s.44,11.21,1.87,14.77c.8,2,3.11,8.12,3.11,8.12l-.3,18.55Z"/><polygon class="cls-3" points="521.02 131.14 518.13 143.43 545.34 143.43 543.55 122.83 521.02 131.14"/><path class="cls-5" d="M545.34,143.43a20,20,0,0,0-3.6-.36c-2.23-.13-5.32-.24-8.73-.22s-6.49.16-8.72.34a18.75,18.75,0,0,0-3.59.44,23.15,23.15,0,0,0,3.61,0c2.23-.07,5.31-.15,8.71-.16s6.47,0,8.7.05A24.17,24.17,0,0,0,545.34,143.43Z"/><path class="cls-5" d="M519.84,122.73a16.52,16.52,0,0,0-.09,3.12c0,1.93.09,4.59.21,7.53s.25,5.6.38,7.52a16.71,16.71,0,0,0,.33,3.11,16.52,16.52,0,0,0,.09-3.12c0-1.93-.09-4.59-.2-7.53s-.25-5.6-.38-7.52A15.16,15.16,0,0,0,519.84,122.73Z"/><g class="cls-9"><path d="M495.09,133.37s6.05,44.83,23,43.64c0,0,7.66-.09,10.12-5.17v-2Z"/></g><g class="cls-9"><polygon points="519.84 125.37 516.59 147.35 518.7 151.21 522.16 143.66 520.7 143.63 519.84 125.37"/></g><path class="cls-5" d="M486.58,160a4.05,4.05,0,0,1-.46-1.05c-.27-.68-.62-1.69-1-2.94a88,88,0,0,1-2.61-9.95,71,71,0,0,1-1.28-10.2c-.07-1.32-.09-2.38-.07-3.12a4.67,4.67,0,0,1,.08-1.14c.09,0,.15,1.62.37,4.23A98.69,98.69,0,0,0,483,146c.78,3.92,1.72,7.42,2.44,9.94.33,1.17.62,2.17.85,3A5,5,0,0,1,486.58,160Z"/><path class="cls-5" d="M493.45,172.89a5.33,5.33,0,0,1-.94-2.16,5.18,5.18,0,0,1-.41-2.32c.14,0,.56.92.94,2.16A5.15,5.15,0,0,1,493.45,172.89Z"/><path class="cls-5" d="M495.8,172.71a6.6,6.6,0,0,1-.62-3.27,6.8,6.8,0,0,1,.52-3.3,22.23,22.23,0,0,1,0,3.29A21.12,21.12,0,0,1,495.8,172.71Z"/><path class="cls-5" d="M484.29,153.09c-.07.14-5.49-2.44-12.12-5.75s-11.94-6.11-11.87-6.24,5.49,2.44,12.12,5.75S484.36,153,484.29,153.09Z"/><path class="cls-7" d="M493.85,104.28C494,99,494,93.34,494,93.34S487.17,92,486,83c-1.13-8.58,2-28.7,2-28.7h0c10-3.77,20.36-.35,27.2,7.73h0l-1.7,43.26c-.2,5-4.67,8.85-10,8.6h0C498,113.68,493.74,109.36,493.85,104.28Z"/><path class="cls-5" d="M487.5,70.42a1.16,1.16,0,0,0,1.08,1.19,1.1,1.1,0,0,0,1.21-1,1.15,1.15,0,0,0-1.08-1.19A1.1,1.1,0,0,0,487.5,70.42Z"/><path class="cls-5" d="M487.08,68.91c.13.15,1-.47,2.26-.43s2.12.67,2.26.53-.07-.34-.46-.64a3.16,3.16,0,0,0-1.81-.61,3.06,3.06,0,0,0-1.8.53C487.14,68.57,487,68.84,487.08,68.91Z"/><path class="cls-5" d="M500,71.2a1.15,1.15,0,0,0,1.08,1.19,1.1,1.1,0,0,0,1.21-1,1.16,1.16,0,0,0-1.08-1.19A1.1,1.1,0,0,0,500,71.2Z"/><path class="cls-5" d="M500,69.69c.14.16,1-.46,2.26-.43s2.12.68,2.26.53-.07-.34-.46-.64a3.19,3.19,0,0,0-1.8-.61,3.09,3.09,0,0,0-1.81.53C500,69.36,499.89,69.62,500,69.69Z"/><path class="cls-5" d="M495.24,78.74a8.42,8.42,0,0,0-2-.41c-.32,0-.61-.11-.66-.33a1.6,1.6,0,0,1,.23-.93l1-2.38a43.34,43.34,0,0,0,2.26-6.23,41.93,41.93,0,0,0-2.76,6l-.95,2.4a1.8,1.8,0,0,0-.2,1.23.81.81,0,0,0,.51.48,3.09,3.09,0,0,0,.53.09A7.91,7.91,0,0,0,495.24,78.74Z"/><path class="cls-8" d="M494,93.34a22.7,22.7,0,0,0,12.07-2.89s-3.07,6.08-12,5Z"/><path class="cls-5" d="M503.91,66.13c-.25.38-1.19.21-2.24,0s-2-.4-2.08-.85,1-1,2.39-.76S504.17,65.76,503.91,66.13Z"/><path class="cls-5" d="M491.63,64.31c-.1.45-1.11.62-2.27.68s-2.17,0-2.31-.47.84-1.11,2.24-1.18S491.73,63.88,491.63,64.31Z"/><path class="cls-8" d="M495.26,81.7a.64.64,0,0,0-.69.31.75.75,0,0,0,.16.88.74.74,0,0,0,.9,0,.7.7,0,0,0-.64-1.22"/><path class="cls-5" d="M495.55,81.82c.05,0-.2-.35-.74-.23a.93.93,0,0,0-.68.66,1,1,0,0,0,1.56,1.13.9.9,0,0,0,.38-.88c-.11-.56-.52-.65-.53-.57s.14.26.11.59a.49.49,0,0,1-.26.39.53.53,0,0,1-.53,0A.54.54,0,0,1,495,82C495.25,81.82,495.51,81.9,495.55,81.82Z"/><path class="cls-5" d="M511.08,72.64c-1.07,2.47-3.67,4.37-3.31,7,.24,1.72,1.34,3.32,1.13,5-.27,2.17-2.52,3.67-2.84,5.82-.39,2.65,2.18,4.7,3.21,7.17,1.5,3.6-.42,7.64-.46,11.53a12.36,12.36,0,0,0,10.94,12c2.41.2,5.12-.53,6.36-2.6,1-1.7.83-3.86,1.44-5.76.92-2.82,3.61-4.88,4.17-7.79,1-5.3-5.37-9.69-5-15.08.18-2.3,1.6-4.31,2.2-6.54A9.54,9.54,0,0,0,527.09,75c-1.58-1.88-3.87-3.12-5.22-5.18-1.53-2.33-1.58-5.28-2.16-8A20.19,20.19,0,0,0,487.64,50s-1.53,6.94,5.59,8.1,10.43-.18,11.23,2.68a7.54,7.54,0,0,0,2.14,6.52C509.54,70.45,512.31,69.78,511.08,72.64Z"/><path class="cls-6" d="M522.45,120.78a2.45,2.45,0,0,1-.65-.07,9,9,0,0,1-1.81-.48,12.78,12.78,0,0,1-5.52-4.09,14.39,14.39,0,0,1-2.34-4.17,16.61,16.61,0,0,1-1-5.4,22.24,22.24,0,0,1,.76-6,25.17,25.17,0,0,1,1-3,30.27,30.27,0,0,0,1.15-3,5.69,5.69,0,0,0,0-3.09,16.8,16.8,0,0,0-1.19-2.88,19.41,19.41,0,0,1-1.23-2.86,6.1,6.1,0,0,1-.22-3c.42-2,1.62-3.46,2.33-5a9.43,9.43,0,0,0,1-4.49A10.58,10.58,0,0,0,512.38,67a17.16,17.16,0,0,0-1.79-1.74,7.1,7.1,0,0,1,1.95,1.6,10.54,10.54,0,0,1,2.57,6.33,9.7,9.7,0,0,1-.93,4.71c-.72,1.56-1.89,3-2.25,4.85s.5,3.72,1.44,5.55a17.27,17.27,0,0,1,1.24,3,6.13,6.13,0,0,1,0,3.37,28.74,28.74,0,0,1-1.17,3.09,24.26,24.26,0,0,0-1,3,21.64,21.64,0,0,0-.77,5.87,15.14,15.14,0,0,0,3.1,9.34,13,13,0,0,0,5.28,4.13A24.46,24.46,0,0,0,522.45,120.78Z"/><path class="cls-6" d="M521.4,67.64a8.22,8.22,0,0,1-1.57.23,16.31,16.31,0,0,1-4.34-.11A8.25,8.25,0,0,1,510,64.44a18.25,18.25,0,0,1-1.44-3.54,5.83,5.83,0,0,0-2.4-3c-2.3-1.46-5-1.64-7.38-1.93a12.8,12.8,0,0,1-6.14-1.91,6.13,6.13,0,0,1-2.52-3.52,4,4,0,0,1-.08-1.18,1.19,1.19,0,0,1,.09-.41,8.38,8.38,0,0,0,.2,1.54,6.09,6.09,0,0,0,2.53,3.25,12.73,12.73,0,0,0,6,1.73c2.35.27,5.15.41,7.62,2a6.31,6.31,0,0,1,2.6,3.23,18.24,18.24,0,0,0,1.36,3.45,8,8,0,0,0,5.13,3.22,18.62,18.62,0,0,0,4.25.28A11.22,11.22,0,0,1,521.4,67.64Z"/><path class="cls-6" d="M518.79,59.06a3.23,3.23,0,0,1-1.24.18,7.58,7.58,0,0,1-5.28-2.11A9.62,9.62,0,0,1,510.64,55c-.95-1.6-1.87-3.57-3.84-4.39a12.62,12.62,0,0,0-5.9-.52,17.83,17.83,0,0,1-5,0,6.31,6.31,0,0,1-3.11-1.39,3.75,3.75,0,0,1-.62-.7c-.12-.18-.17-.27-.16-.28s.3.33.91.81a6.54,6.54,0,0,0,3,1.18,19.17,19.17,0,0,0,4.93-.08,12.61,12.61,0,0,1,6.16.52,6,6,0,0,1,2.52,2.09,27.28,27.28,0,0,1,1.53,2.55,9.85,9.85,0,0,0,1.52,2.11,7.29,7.29,0,0,0,1.81,1.34,7.83,7.83,0,0,0,3.16.88C518.34,59.08,518.78,59,518.79,59.06Z"/><path class="cls-6" d="M525.59,118.51c-.05,0,.28-.7.67-2a17.88,17.88,0,0,0,.7-5.64,17.25,17.25,0,0,0-2.24-8c-.77-1.38-1.94-2.61-2.9-4.13a7.47,7.47,0,0,1-1.06-2.54,5.71,5.71,0,0,1,.24-2.84c.59-1.82,1.64-3.35,1.87-5s-.56-3.21-1.36-4.57a19.32,19.32,0,0,1-1.13-2.09,7.44,7.44,0,0,1-.6-2.2,19.43,19.43,0,0,1,.12-4,10.59,10.59,0,0,0-.5-5.6,5.22,5.22,0,0,0-1.24-1.64s.05,0,.13.06a1.83,1.83,0,0,1,.33.24,3.82,3.82,0,0,1,1,1.25,10.38,10.38,0,0,1,.7,5.72,19.66,19.66,0,0,0-.06,3.93,9.94,9.94,0,0,0,1.71,4.09,14.72,14.72,0,0,1,1.15,2.24,5.31,5.31,0,0,1,.31,2.66c-.25,1.84-1.34,3.4-1.88,5.11a5.32,5.32,0,0,0-.22,2.58,7.08,7.08,0,0,0,1,2.36c.9,1.45,2.08,2.71,2.88,4.15a17.41,17.41,0,0,1,2.19,8.29,17.16,17.16,0,0,1-.88,5.72,13.53,13.53,0,0,1-.61,1.45A2,2,0,0,1,525.59,118.51Z"/><path class="cls-5" d="M482.69,314.74s-7.09-67.23-7.5-92.08,11.17-49.36,11.17-49.36l45.38-1.92s9,25.21,9.12,35.8c.32,20.58-5.46,40.9-4.8,57.22l1.52,50.34"/><path class="cls-10" d="M539.1,232.08a6.23,6.23,0,0,1-.74.57l-.42.29c-.14.12-.28.27-.44.42a7.22,7.22,0,0,0-1,1.13c-1.46,1.8-2.53,5-3.55,9a30.22,30.22,0,0,1-2.29,6.4,12.16,12.16,0,0,1-1,1.59c-.2.25-.38.53-.59.77l-.7.7a11.52,11.52,0,0,1-3.41,2.19c-2.54,1.11-5.41,1.64-8,2.95a12.63,12.63,0,0,0-5.82,6.64c-1.28,2.85-2.06,5.85-3.12,8.65s-2.47,5.47-4.74,7.18-5,2.17-7.42,2.33-4.71.07-6.74.38a10.71,10.71,0,0,0-5.08,1.91,7.07,7.07,0,0,0-2.36,3.33,5,5,0,0,0-.17,2.58c.11.59.28.87.24.89a3,3,0,0,1-.35-.87,4.89,4.89,0,0,1,.08-2.67,7.27,7.27,0,0,1,2.37-3.5,10.9,10.9,0,0,1,5.21-2.06c2.07-.33,4.36-.29,6.77-.45a12.58,12.58,0,0,0,7.14-2.27c2.14-1.63,3.52-4.23,4.55-7s1.81-5.77,3.12-8.69a13.2,13.2,0,0,1,6.08-6.89c2.72-1.35,5.59-1.86,8.07-2.94a10.85,10.85,0,0,0,3.28-2.08l.67-.66c.21-.23.38-.49.57-.73a11.4,11.4,0,0,0,1-1.53,30.57,30.57,0,0,0,2.32-6.28c1.06-4,2.21-7.24,3.76-9a6.8,6.8,0,0,1,1.06-1.12c.17-.15.32-.29.47-.41l.43-.28A7.59,7.59,0,0,1,539.1,232.08Z"/><path class="cls-10" d="M539.38,201a5.27,5.27,0,0,1,.06.9,11.23,11.23,0,0,1-.32,2.57,16.58,16.58,0,0,1-5.12,7.93,30.44,30.44,0,0,1-5.32,3.88c-2,1.21-4.27,2.35-6.57,3.65a35.11,35.11,0,0,0-6.73,4.73,26,26,0,0,0-5.09,7.16,64.35,64.35,0,0,1-4.42,7.78,18.3,18.3,0,0,1-2.88,3.19,18.68,18.68,0,0,1-3.42,2.28,42.74,42.74,0,0,1-7.05,2.7c-2.25.7-4.35,1.31-6.19,2.08a24.38,24.38,0,0,0-4.72,2.53,14.56,14.56,0,0,0-3,2.73,14.39,14.39,0,0,0-1.78,3,5,5,0,0,1,.29-.86,10.75,10.75,0,0,1,1.32-2.23,14.42,14.42,0,0,1,2.95-2.85,23.9,23.9,0,0,1,4.75-2.63,64.46,64.46,0,0,1,6.2-2.16,42.59,42.59,0,0,0,6.95-2.72,17.54,17.54,0,0,0,3.32-2.23,18,18,0,0,0,2.79-3.1,68.59,68.59,0,0,0,4.37-7.73,26.38,26.38,0,0,1,5.2-7.29,34.75,34.75,0,0,1,6.85-4.78c2.32-1.29,4.57-2.42,6.59-3.6a30.46,30.46,0,0,0,5.28-3.78,16.83,16.83,0,0,0,5.19-7.69A17.33,17.33,0,0,0,539.38,201Z"/><path class="cls-10" d="M475.42,226.22s0-.06-.09-.2a5.67,5.67,0,0,1-.21-.63,5.16,5.16,0,0,1,.11-2.52c.59-2.15,2.91-4.82,6.67-6.15,1.87-.64,4-1,6.19-1.61a11.63,11.63,0,0,0,8.59-6.39,32.89,32.89,0,0,0,1.57-3.78,41.72,41.72,0,0,1,3.34-8.08,12.92,12.92,0,0,1,6.87-5.34,64.18,64.18,0,0,1,7.88-2,25.88,25.88,0,0,0,6.86-2.33,14.43,14.43,0,0,0,4.64-4.18,15.65,15.65,0,0,0,2.94-8.53,24.3,24.3,0,0,0-.22-3.37,11.23,11.23,0,0,1,.44,3.37,15.57,15.57,0,0,1-2.85,8.76,14.57,14.57,0,0,1-4.73,4.35,26.48,26.48,0,0,1-7,2.43,62.33,62.33,0,0,0-7.81,2,12.43,12.43,0,0,0-6.6,5.12,41.5,41.5,0,0,0-3.29,8,32,32,0,0,1-1.62,3.84,12,12,0,0,1-8.93,6.59c-2.24.57-4.35.93-6.19,1.54-3.65,1.24-6,3.8-6.59,5.84a5.2,5.2,0,0,0-.2,2.44C475.35,225.92,475.44,226.21,475.42,226.22Z"/><path class="cls-10" d="M535.48,283.07a4.46,4.46,0,0,1,.07.67,7.09,7.09,0,0,1-.2,1.9,10.79,10.79,0,0,1-4,5.69,18,18,0,0,1-4.17,2.48,55.42,55.42,0,0,1-5.25,1.81,44.14,44.14,0,0,0-5.69,2.08,16.44,16.44,0,0,0-5.19,3.78c-1.53,1.61-2.86,3.37-4.33,4.92a19.87,19.87,0,0,1-4.85,3.8,21.33,21.33,0,0,1-10,2.6,19.7,19.7,0,0,1-6.89-1.14,14,14,0,0,1-1.75-.75,4.09,4.09,0,0,1-.58-.32,3,3,0,0,1,.63.22,16,16,0,0,0,1.77.65,20.67,20.67,0,0,0,6.82,1,21.21,21.21,0,0,0,9.77-2.65,19.34,19.34,0,0,0,4.71-3.73c1.44-1.53,2.76-3.29,4.33-4.93a17,17,0,0,1,5.35-3.89,41.56,41.56,0,0,1,5.78-2.07c1.86-.57,3.63-1.1,5.21-1.75a17.25,17.25,0,0,0,4.11-2.37,10.88,10.88,0,0,0,4-5.44A13.56,13.56,0,0,0,535.48,283.07Z"/><path class="cls-7" d="M530.3,143.47l-8.77.21a14.55,14.55,0,0,1-2,5c-7.34-12.74-13-29.8-14.44-36.66.21-.68.45-1.44.75-2.29a9.83,9.83,0,0,0-.11-3.85c-.25-1.53-.68-3.58-.8-4.53-.39-2.9-.86-3.36-1.87-3-1.38.45.56,8.14-.57,8.3-.6.09-1.34-2.54-1.56-4.7s-1.19-8.82-1.9-9.26c-1.05-.65-2,.38-1.7,2.53s.61,8.68-.54,8.77S494.74,93,494.74,93s.18-2.4-1.14-2.34c-2.39.1-.52,11.72-.32,12.83.14.76-1.1.9-1.21.07s-.68-11-3.11-10.94c-1.87.06,1.44,9.58.39,11.78s-1.77-7.49-3.55-7.36c-.66,0-1.15.18.07,5.67a122.48,122.48,0,0,0,4.25,12.86c2.82,15.22,15.21,63.91,34.62,55,10.86-5,15.27-27.08,15.27-27.08Z"/><path class="cls-8" d="M492.87,104.23a.53.53,0,0,0,.25,0,.56.56,0,0,0,.39-.61c0-.66-.12-1.61-.27-2.84a38.46,38.46,0,0,1-.49-4.49c0-.88,0-1.83.06-2.83a9.78,9.78,0,0,1,.15-1.52c.09-.47.41-1,.77-1h.06c.38,0,.67.28.79.72a4.37,4.37,0,0,1,.14,1.41v0a84.64,84.64,0,0,0,1.12,8.79c.09.39.18.79.3,1.19a4.84,4.84,0,0,0,.22.6,1.39,1.39,0,0,0,.18.31.54.54,0,0,0,.44.28.79.79,0,0,0,.66-.55,4.37,4.37,0,0,0,.2-.65,11.39,11.39,0,0,0,.17-1.29,40.33,40.33,0,0,0-.07-5.26,11.9,11.9,0,0,1-.11-2.64,1.43,1.43,0,0,1,.51-1,.56.56,0,0,1,.46-.06,1.06,1.06,0,0,1,.25.11c.07.06.05,0,.11.15a12.39,12.39,0,0,1,.73,2.65c.19.93.35,1.88.5,2.84s.29,1.93.4,2.91a19.73,19.73,0,0,0,.49,3,9.49,9.49,0,0,0,.47,1.49,2.77,2.77,0,0,0,.44.74.61.61,0,0,0,.63.23.69.69,0,0,0,.43-.47,5.19,5.19,0,0,0,.11-1.64c0-.52-.07-1-.11-1.56-.08-.88-.16-1.76-.19-2.62a7.59,7.59,0,0,1,0-1.27,1.78,1.78,0,0,1,.13-.55.44.44,0,0,1,.1-.16s0,0,0,0l.14,0c.69-.29.93.68,1.11,1.46s.27,1.66.43,2.5c.28,1.65.63,3.3.82,4.89a5.84,5.84,0,0,1-.09,2.26L505,112l0,.07,0,.07a121.54,121.54,0,0,0,4.71,15.23c1.67,4.49,3.34,8.38,4.81,11.55s2.78,5.63,3.69,7.3l1.1,1.88a4.82,4.82,0,0,0,.4.64,3.31,3.31,0,0,0-.32-.68l-1-1.93c-.85-1.69-2.12-4.16-3.54-7.35s-3-7.08-4.67-11.58a125.46,125.46,0,0,1-4.61-15.17v.14c.24-.74.49-1.48.73-2.23a6,6,0,0,0,.13-2.52c-.18-1.65-.53-3.25-.8-4.92-.17-.82-.27-1.67-.44-2.53a4.84,4.84,0,0,0-.43-1.3,1.22,1.22,0,0,0-.58-.59,1.25,1.25,0,0,0-.83,0l-.17,0a.7.7,0,0,0-.24.13.93.93,0,0,0-.27.38,2.81,2.81,0,0,0-.18.72,8.75,8.75,0,0,0,0,1.35c0,.9.11,1.78.19,2.67,0,.51.09,1,.11,1.53a4.9,4.9,0,0,1-.08,1.41c0,.11-.08.09,0,.14h0s0,0,0,0h0v0s0,0,0,0,0,0-.07-.06a2.31,2.31,0,0,1-.32-.57,9.36,9.36,0,0,1-.44-1.39,19.33,19.33,0,0,1-.48-2.92c-.12-1-.26-2-.41-2.94s-.31-1.92-.51-2.87a12.37,12.37,0,0,0-.8-2.81.88.88,0,0,0-.33-.37,1.68,1.68,0,0,0-.39-.16,1.12,1.12,0,0,0-.89.12,2,2,0,0,0-.78,1.37,5.36,5.36,0,0,0,0,1.44c.06.45.1.89.14,1.34a37.74,37.74,0,0,1,.09,5.19,9.52,9.52,0,0,1-.15,1.21,2.74,2.74,0,0,1-.16.55,1.17,1.17,0,0,1-.12.2c0,.08-.07,0-.06.12.05-.11,0,0,0-.14a1.16,1.16,0,0,1-.13-.22c-.07-.17-.14-.35-.2-.54-.12-.37-.2-.76-.29-1.14a86.18,86.18,0,0,1-1.19-8.73v0a4.54,4.54,0,0,0-.17-1.56,1.57,1.57,0,0,0-.41-.7,1.06,1.06,0,0,0-.78-.29h.05a.89.89,0,0,0-.9.43,2.36,2.36,0,0,0-.33.82,11.15,11.15,0,0,0-.14,1.58c0,1,0,2,0,2.86a35.44,35.44,0,0,0,.58,4.51c.18,1.22.32,2.17.38,2.81a.52.52,0,0,1-.31.56C493,104.21,492.86,104.22,492.87,104.23Z"/><path class="cls-7" d="M424.28,158a22.54,22.54,0,0,0-6.1.7c-5.44,1.43-14.83,7.12-15.22,14.15h6.82s-3.82,8.13-2.7,7.38c2.91-1.95,8.71-7.84,8.71-7.84Z"/><path class="cls-5" d="M517.3,35.61c-.15,0-.77-5.63-1.38-12.6s-1-12.62-.84-12.64.77,5.63,1.38,12.6S517.45,35.59,517.3,35.61Z"/><path class="cls-5" d="M547.22,10.72c.12.08-4.49,6.77-10.29,14.93s-10.62,14.71-10.74,14.62,4.48-6.77,10.29-14.94S547.1,10.63,547.22,10.72Z"/><path class="cls-5" d="M559.65,41c0,.15-5.35,1.38-12,2.75S535.55,46.13,535.52,46s5.35-1.38,12-2.74S559.62,40.88,559.65,41Z"/><path class="cls-4" d="M201.45,185.68,164.21,377.15l-4.87,25.06L408,401c11.16-.06,21.05-10,24.64-24.68l44.08-180.77c2.73-11.17-3.25-22.79-11.72-22.78L213.32,173C207.77,173,202.91,178.21,201.45,185.68Z"/><g class="cls-11"><path d="M201.45,185.68,164.21,377.15l-4.87,25.06L408,401c11.16-.06,21.05-10,24.64-24.68l44.08-180.77c2.73-11.17-3.25-22.79-11.72-22.78L213.32,173C207.77,173,202.91,178.21,201.45,185.68Z"/></g><path class="cls-3" d="M384.1,364.18,357.78,152.06c-1.08-8.69-8-15.17-16.17-15.15l-57.72.19a15.71,15.71,0,0,0-11.41,5.06l-27.41,29.13-160.53.84c-9.81.05-17.34,9.33-16,19.76L92.94,387.94c1.08,8.68,8,15.16,16.15,15.14l279.77-.55C420,403.17,423,394,423,394,387.29,401.89,384.11,364.2,384.1,364.18Z"/><g class="cls-11"><polygon class="cls-12" points="263.47 321.72 254.03 331.86 181.36 266.48 190.8 256.35 263.47 321.72"/><polygon class="cls-12" points="250.08 254.1 260.51 263.48 194.75 334.11 184.32 324.72 250.08 254.1"/></g><path class="cls-3" d="M424.06,48a2,2,0,0,1-1.2-1.72l-.42-9.78a2,2,0,0,1,2.42-2,6,6,0,0,0,4.75-.94,5.48,5.48,0,0,0,2.46-3.6,5.58,5.58,0,0,0-1.18-4.22,6.24,6.24,0,0,0-4.15-2.5,7.36,7.36,0,0,0-7.48,5.3,2,2,0,0,1-3.79-1,11.34,11.34,0,0,1,11.72-8.18,10.12,10.12,0,0,1,6.83,4A9.52,9.52,0,0,1,436,30.57a9.42,9.42,0,0,1-4.15,6.23,10.26,10.26,0,0,1-5.33,1.74l.32,7.54a2,2,0,0,1-1.88,2.05A2,2,0,0,1,424.06,48Z"/><path class="cls-3" d="M426.94,52a1.61,1.61,0,1,1-1.72-1.5A1.61,1.61,0,0,1,426.94,52Z"/><path class="cls-13" d="M460.77,33.33a35.23,35.23,0,0,1-2.69,15.94c1.84,3.71,10.66,16.25,10.66,16.25s-15-3.91-18.11-5.17a35.1,35.1,0,1,1,10.14-27Z"/></g></g></svg>